<mxfile host="Electron" agent="Mozilla/5.0 (Windows NT 10.0; Win64; x64) AppleWebKit/537.36 (KHTML, like Gecko) draw.io/26.0.16 Chrome/132.0.6834.196 Electron/34.2.0 Safari/537.36" version="26.0.16">
  <diagram name="Seite-1" id="T_CEsNFvgsuwPeouJeFK">
    <mxGraphModel dx="1050" dy="669" grid="1" gridSize="10" guides="1" tooltips="1" connect="1" arrows="1" fold="1" page="1" pageScale="1" pageWidth="827" pageHeight="1169" math="0" shadow="0">
      <root>
        <mxCell id="0" />
        <mxCell id="1" parent="0" />
        <mxCell id="kdtduOX_qHTTLlpiZ-oW-1" value="Climbers" style="swimlane;childLayout=stackLayout;horizontal=1;startSize=50;horizontalStack=0;rounded=1;fontSize=14;fontStyle=0;strokeWidth=2;resizeParent=0;resizeLast=1;shadow=0;dashed=0;align=center;arcSize=4;whiteSpace=wrap;html=1;" vertex="1" parent="1">
          <mxGeometry x="100" y="120" width="260" height="180" as="geometry" />
        </mxCell>
        <mxCell id="kdtduOX_qHTTLlpiZ-oW-2" value="id: int&lt;div&gt;name: string&lt;/div&gt;&lt;div&gt;age: int&lt;/div&gt;&lt;div&gt;equipmentID: int&lt;/div&gt;&lt;div&gt;&lt;br&gt;&lt;/div&gt;&lt;div&gt;completetRoutes: array&lt;/div&gt;&lt;div&gt;equipment: array&lt;/div&gt;" style="align=left;strokeColor=none;fillColor=none;spacingLeft=4;spacingRight=4;fontSize=12;verticalAlign=top;resizable=0;rotatable=0;part=1;html=1;whiteSpace=wrap;" vertex="1" parent="kdtduOX_qHTTLlpiZ-oW-1">
          <mxGeometry y="50" width="260" height="130" as="geometry" />
        </mxCell>
        <mxCell id="kdtduOX_qHTTLlpiZ-oW-11" style="rounded=0;orthogonalLoop=1;jettySize=auto;html=1;entryX=0;entryY=0.5;entryDx=0;entryDy=0;" edge="1" parent="1" source="kdtduOX_qHTTLlpiZ-oW-3" target="kdtduOX_qHTTLlpiZ-oW-10">
          <mxGeometry relative="1" as="geometry" />
        </mxCell>
        <mxCell id="kdtduOX_qHTTLlpiZ-oW-33" value="refrences" style="edgeLabel;html=1;align=center;verticalAlign=middle;resizable=0;points=[];" vertex="1" connectable="0" parent="kdtduOX_qHTTLlpiZ-oW-11">
          <mxGeometry x="-0.3289" y="1" relative="1" as="geometry">
            <mxPoint as="offset" />
          </mxGeometry>
        </mxCell>
        <mxCell id="kdtduOX_qHTTLlpiZ-oW-3" value="completet Routes" style="swimlane;childLayout=stackLayout;horizontal=1;startSize=50;horizontalStack=0;rounded=1;fontSize=14;fontStyle=0;strokeWidth=2;resizeParent=0;resizeLast=1;shadow=0;dashed=0;align=center;arcSize=4;whiteSpace=wrap;html=1;" vertex="1" parent="1">
          <mxGeometry x="280" y="170" width="180" height="110" as="geometry" />
        </mxCell>
        <mxCell id="kdtduOX_qHTTLlpiZ-oW-4" value="routeID: int&lt;div&gt;date: date&lt;/div&gt;&lt;div&gt;rating: string&lt;/div&gt;" style="align=left;strokeColor=none;fillColor=none;spacingLeft=4;spacingRight=4;fontSize=12;verticalAlign=top;resizable=0;rotatable=0;part=1;html=1;whiteSpace=wrap;" vertex="1" parent="kdtduOX_qHTTLlpiZ-oW-3">
          <mxGeometry y="50" width="180" height="60" as="geometry" />
        </mxCell>
        <mxCell id="kdtduOX_qHTTLlpiZ-oW-9" value="Route" style="swimlane;childLayout=stackLayout;horizontal=1;startSize=50;horizontalStack=0;rounded=1;fontSize=14;fontStyle=0;strokeWidth=2;resizeParent=0;resizeLast=1;shadow=0;dashed=0;align=center;arcSize=4;whiteSpace=wrap;html=1;" vertex="1" parent="1">
          <mxGeometry x="540" y="90" width="230" height="180" as="geometry" />
        </mxCell>
        <mxCell id="kdtduOX_qHTTLlpiZ-oW-10" value="id: int&lt;div&gt;name: string&lt;/div&gt;&lt;div&gt;lenght: float&lt;/div&gt;&lt;div&gt;difficulty: string&lt;/div&gt;" style="align=left;strokeColor=none;fillColor=none;spacingLeft=4;spacingRight=4;fontSize=12;verticalAlign=top;resizable=0;rotatable=0;part=1;html=1;whiteSpace=wrap;" vertex="1" parent="kdtduOX_qHTTLlpiZ-oW-9">
          <mxGeometry y="50" width="230" height="130" as="geometry" />
        </mxCell>
        <mxCell id="kdtduOX_qHTTLlpiZ-oW-12" value="Equipment" style="swimlane;childLayout=stackLayout;horizontal=1;startSize=50;horizontalStack=0;rounded=1;fontSize=14;fontStyle=0;strokeWidth=2;resizeParent=0;resizeLast=1;shadow=0;dashed=0;align=center;arcSize=4;whiteSpace=wrap;html=1;" vertex="1" parent="1">
          <mxGeometry x="30" y="290" width="210" height="140" as="geometry" />
        </mxCell>
        <mxCell id="kdtduOX_qHTTLlpiZ-oW-13" value="id: int&lt;div&gt;typ: string&lt;/div&gt;&lt;div&gt;price: float&lt;/div&gt;&lt;div&gt;&lt;br&gt;&lt;/div&gt;&lt;div&gt;rented: array&lt;/div&gt;" style="align=left;strokeColor=none;fillColor=none;spacingLeft=4;spacingRight=4;fontSize=12;verticalAlign=top;resizable=0;rotatable=0;part=1;html=1;whiteSpace=wrap;" vertex="1" parent="kdtduOX_qHTTLlpiZ-oW-12">
          <mxGeometry y="50" width="210" height="90" as="geometry" />
        </mxCell>
        <mxCell id="kdtduOX_qHTTLlpiZ-oW-14" value="Climbing hall" style="swimlane;childLayout=stackLayout;horizontal=1;startSize=50;horizontalStack=0;rounded=1;fontSize=14;fontStyle=0;strokeWidth=2;resizeParent=0;resizeLast=1;shadow=0;dashed=0;align=center;arcSize=4;whiteSpace=wrap;html=1;" vertex="1" parent="1">
          <mxGeometry x="460" y="350" width="250" height="180" as="geometry" />
        </mxCell>
        <mxCell id="kdtduOX_qHTTLlpiZ-oW-15" value="id: int&lt;div&gt;name: string&lt;/div&gt;&lt;div&gt;adress: string&lt;/div&gt;&lt;div&gt;&lt;br&gt;&lt;/div&gt;&lt;div&gt;availableEquipment: array&lt;/div&gt;&lt;div&gt;climbers: array&lt;/div&gt;" style="align=left;strokeColor=none;fillColor=none;spacingLeft=4;spacingRight=4;fontSize=12;verticalAlign=top;resizable=0;rotatable=0;part=1;html=1;whiteSpace=wrap;" vertex="1" parent="kdtduOX_qHTTLlpiZ-oW-14">
          <mxGeometry y="50" width="250" height="130" as="geometry" />
        </mxCell>
        <mxCell id="kdtduOX_qHTTLlpiZ-oW-24" style="rounded=0;orthogonalLoop=1;jettySize=auto;html=1;exitX=0.5;exitY=1;exitDx=0;exitDy=0;entryX=0.787;entryY=-0.002;entryDx=0;entryDy=0;entryPerimeter=0;" edge="1" parent="1" source="kdtduOX_qHTTLlpiZ-oW-10" target="kdtduOX_qHTTLlpiZ-oW-14">
          <mxGeometry relative="1" as="geometry" />
        </mxCell>
        <mxCell id="kdtduOX_qHTTLlpiZ-oW-34" value="refrences" style="edgeLabel;html=1;align=center;verticalAlign=middle;resizable=0;points=[];" vertex="1" connectable="0" parent="kdtduOX_qHTTLlpiZ-oW-24">
          <mxGeometry x="0.1531" y="-4" relative="1" as="geometry">
            <mxPoint as="offset" />
          </mxGeometry>
        </mxCell>
        <mxCell id="kdtduOX_qHTTLlpiZ-oW-25" value="availableEquipment" style="swimlane;childLayout=stackLayout;horizontal=1;startSize=50;horizontalStack=0;rounded=1;fontSize=14;fontStyle=0;strokeWidth=2;resizeParent=0;resizeLast=1;shadow=0;dashed=0;align=center;arcSize=4;whiteSpace=wrap;html=1;" vertex="1" parent="1">
          <mxGeometry x="610" y="490" width="210" height="160" as="geometry" />
        </mxCell>
        <mxCell id="kdtduOX_qHTTLlpiZ-oW-26" value="id: int&lt;div&gt;typ: string&lt;/div&gt;&lt;div&gt;price: float&lt;/div&gt;&lt;div&gt;amount: int&lt;/div&gt;" style="align=left;strokeColor=none;fillColor=none;spacingLeft=4;spacingRight=4;fontSize=12;verticalAlign=top;resizable=0;rotatable=0;part=1;html=1;whiteSpace=wrap;" vertex="1" parent="kdtduOX_qHTTLlpiZ-oW-25">
          <mxGeometry y="50" width="210" height="110" as="geometry" />
        </mxCell>
        <mxCell id="kdtduOX_qHTTLlpiZ-oW-27" style="edgeStyle=orthogonalEdgeStyle;rounded=0;orthogonalLoop=1;jettySize=auto;html=1;exitX=0.75;exitY=1;exitDx=0;exitDy=0;entryX=-0.005;entryY=0.934;entryDx=0;entryDy=0;entryPerimeter=0;" edge="1" parent="1" source="kdtduOX_qHTTLlpiZ-oW-13" target="kdtduOX_qHTTLlpiZ-oW-26">
          <mxGeometry relative="1" as="geometry" />
        </mxCell>
        <mxCell id="kdtduOX_qHTTLlpiZ-oW-32" value="refrences" style="edgeLabel;html=1;align=center;verticalAlign=middle;resizable=0;points=[];" vertex="1" connectable="0" parent="kdtduOX_qHTTLlpiZ-oW-27">
          <mxGeometry x="-0.6342" y="-2" relative="1" as="geometry">
            <mxPoint as="offset" />
          </mxGeometry>
        </mxCell>
        <mxCell id="kdtduOX_qHTTLlpiZ-oW-30" style="rounded=0;orthogonalLoop=1;jettySize=auto;html=1;exitX=0.25;exitY=0;exitDx=0;exitDy=0;entryX=0.75;entryY=1;entryDx=0;entryDy=0;" edge="1" parent="1" source="kdtduOX_qHTTLlpiZ-oW-28" target="kdtduOX_qHTTLlpiZ-oW-2">
          <mxGeometry relative="1" as="geometry" />
        </mxCell>
        <mxCell id="kdtduOX_qHTTLlpiZ-oW-31" value="refrences" style="edgeLabel;html=1;align=center;verticalAlign=middle;resizable=0;points=[];" vertex="1" connectable="0" parent="kdtduOX_qHTTLlpiZ-oW-30">
          <mxGeometry x="-0.0315" y="2" relative="1" as="geometry">
            <mxPoint as="offset" />
          </mxGeometry>
        </mxCell>
        <mxCell id="kdtduOX_qHTTLlpiZ-oW-28" value="Climbers" style="swimlane;childLayout=stackLayout;horizontal=1;startSize=50;horizontalStack=0;rounded=1;fontSize=14;fontStyle=0;strokeWidth=2;resizeParent=0;resizeLast=1;shadow=0;dashed=0;align=center;arcSize=4;whiteSpace=wrap;html=1;" vertex="1" parent="1">
          <mxGeometry x="350" y="500" width="160" height="120" as="geometry" />
        </mxCell>
        <mxCell id="kdtduOX_qHTTLlpiZ-oW-29" value="climberID: int&lt;div&gt;name: string&lt;/div&gt;&lt;div&gt;age:int&lt;/div&gt;" style="align=left;strokeColor=none;fillColor=none;spacingLeft=4;spacingRight=4;fontSize=12;verticalAlign=top;resizable=0;rotatable=0;part=1;html=1;whiteSpace=wrap;" vertex="1" parent="kdtduOX_qHTTLlpiZ-oW-28">
          <mxGeometry y="50" width="160" height="70" as="geometry" />
        </mxCell>
      </root>
    </mxGraphModel>
  </diagram>
</mxfile>
